<svg width="100" height="60" viewBox="0 0 100 60" fill="none" xmlns="http://www.w3.org/2000/svg">
<g clip-path="url(#clip0_10_13)">
<rect width="100" height="60" fill="#1D5CFF"/>
<path d="M-2.40095 2.05801L-2.91545 2.91551L-2.05795 3.43L42.2254 30L-2.05795 56.5701L-2.91545 57.0846L-2.40095 57.942L0.686025 63.087L1.20052 63.9445L2.05801 63.43L50 34.6648L97.942 63.43L98.7995 63.9445L99.314 63.087L102.401 57.942L102.916 57.0846L102.058 56.5701L57.7746 30L102.058 3.43L102.916 2.91551L102.401 2.05801L99.314 -3.08694L98.7995 -3.94444L97.942 -3.42994L50 25.3353L2.05801 -3.42994L1.20052 -3.94444L0.686025 -3.08694L-2.40095 2.05801Z" fill="#FF0000" stroke="white" stroke-width="2"/>
<path d="M47 -1.5H45.5V0V25.5H0H-1.5V27V33V34.5H0H45.5V60V61.5H47H53H54.5V60V34.5H100H101.5V33V27V25.5H100H54.5V0V-1.5H53H47Z" fill="#FF0000" stroke="white" stroke-width="3"/>
</g>
<defs>
<clipPath id="clip0_10_13">
<rect width="100" height="60" rx="8" fill="white"/>
</clipPath>
</defs>
</svg>
