<svg width="512" height="512" viewBox="0 0 512 512" fill="none" xmlns="http://www.w3.org/2000/svg">
<rect width="512" height="512" rx="32" fill="#1D5CFF"/>
<path d="M202.273 334.182L201.545 281.091H210.273L332.455 156.727H385.545L255.364 288.364H251.727L202.273 334.182ZM162.273 436V63.6364H205.182V436H162.273ZM339.727 436L230.636 297.818L261.182 268L394.273 436H339.727Z" fill="white" fill-opacity="0.73"/>
<path fill-rule="evenodd" clip-rule="evenodd" d="M449.22 354.577C449.223 354.578 449.197 354.619 449.13 354.695C449.183 354.613 449.216 354.575 449.22 354.577ZM448.119 355.57C447.692 354.26 446.701 352.018 444.436 348.665C439.008 340.633 428.778 330.305 412.946 318.72C381.552 295.747 333.662 271.835 276.722 253.505C219.783 235.175 166.938 226.657 128.037 227.001C108.42 227.174 94.086 229.594 84.9914 232.951C81.1955 234.352 79.0833 235.596 77.9716 236.41C78.3995 237.72 79.3896 239.962 81.6551 243.315C87.0833 251.347 97.3132 261.675 113.145 273.26C144.539 296.233 192.429 320.145 249.369 338.475C306.308 356.805 359.153 365.323 398.054 364.979C417.671 364.806 432.005 362.386 441.1 359.029C444.896 357.628 447.008 356.384 448.119 355.57ZM77.6574 234.962C77.6611 234.963 77.666 235.013 77.6612 235.111C77.6513 235.009 77.6537 234.961 77.6574 234.962ZM76.8713 237.403C76.8677 237.402 76.8942 237.361 76.9614 237.285C76.9084 237.367 76.8748 237.405 76.8713 237.403ZM448.43 356.869C448.44 356.971 448.437 357.019 448.434 357.018C448.43 357.018 448.425 356.967 448.43 356.869ZM240.175 367.032C358.461 405.111 464.59 404.174 477.221 364.938C489.852 325.703 404.201 263.027 285.916 224.948C167.63 186.869 61.5008 187.806 48.87 227.042C36.2392 266.277 121.89 328.953 240.175 367.032Z" fill="url(#paint0_linear_13_33)"/>
<defs>
<linearGradient id="paint0_linear_13_33" x1="285.916" y1="224.948" x2="240.175" y2="367.032" gradientUnits="userSpaceOnUse">
<stop offset="0.276042" stop-color="white"/>
<stop offset="1" stop-color="white" stop-opacity="0"/>
</linearGradient>
</defs>
</svg>
